<?xml version="1.0" encoding="iso-8859-1"?>
<!-- Generator: Adobe Illustrator 19.0.0, SVG Export Plug-In . SVG Version: 6.00 Build 0)  -->
<svg version="1.1" id="Capa_1" xmlns="http://www.w3.org/2000/svg" xmlns:xlink="http://www.w3.org/1999/xlink" x="0px" y="0px"
	 viewBox="0 0 512.001 512.001" style="enable-background:new 0 0 512.001 512.001;" xml:space="preserve">
<circle style="fill:#F7F0E6;" cx="255.999" cy="256.04" r="248.46"/>
<circle style="fill:#EEE2D4;" cx="255.999" cy="256.04" r="222.76"/>
<circle style="fill:#FFCD6E;" cx="255.999" cy="256.04" r="197.06"/>
<g>
	<circle style="fill:#FFBE50;" cx="228.029" cy="342.01" r="60.777"/>
	<circle style="fill:#FFBE50;" cx="359.039" cy="202.78" r="60.777"/>
	<circle style="fill:#FFBE50;" cx="263.659" cy="145.57" r="43.745"/>
	<circle style="fill:#FFBE50;" cx="305.429" cy="338.73" r="51.791"/>
	<path style="fill:#FFBE50;" d="M255.999,58.983c-59.99,0-113.68,26.841-149.822,69.129c34.429-29.426,79.086-47.234,127.927-47.234
		c108.831,0,197.056,88.225,197.056,197.056c0,48.841-17.808,93.498-47.234,127.927c42.288-36.143,69.129-89.833,69.129-149.823
		C453.055,147.208,364.83,58.983,255.999,58.983z"/>
</g>
<path style="fill:#F0A05F;" d="M282.903,451.281c88.245-11.883,158.567-83.373,168.795-171.826
	c5.942-51.383-7.974-99.339-34.972-137.353c-11.709,89.373-46.395,129.018-65.029,144.271c-6.651,5.444-10.99,13.306-11.374,21.893
	c-2.082,46.517-56.628,54.965-92.976,55.399c-17.638,0.211-33.157,11.822-37.728,28.859c-4.365,16.266-10.755,35.182-17.411,49.955
	C220.142,452.035,250.859,455.596,282.903,451.281z"/>
<g>
	<circle style="fill:#DC875A;" cx="270.989" cy="399.55" r="29.987"/>
	<circle style="fill:#DC875A;" cx="349.169" cy="349.21" r="26.774"/>
	<circle style="fill:#DC875A;" cx="400.849" cy="328.6" r="24.9"/>
	<path style="fill:#DC875A;" d="M453.055,256.039c0-42.467-13.479-81.763-36.329-113.937c-2.119,16.178-5.003,30.693-8.398,43.763
		c14.555,27.484,22.832,58.804,22.832,92.069c0,48.841-17.808,93.497-47.232,127.926
		C426.214,369.717,453.055,316.028,453.055,256.039z"/>
</g>
<g>
	<path style="fill:#C88369;" d="M359.459,396.161l-3.819-90.983c-0.23-5.47,4.66-9.749,10.051-8.796l14.975,2.646
		c4.286,0.757,7.323,4.608,7.061,8.952l-5.229,86.839c-0.224,3.725-2.834,6.877-6.453,7.792l-5.927,1.498
		C364.849,405.44,359.687,401.591,359.459,396.161z"/>
	<path style="fill:#C88369;" d="M398.213,254.627c-2.53-3.542-7.314-4.624-11.122-2.516l-13.304,7.364
		c-4.79,2.652-5.899,9.054-2.279,13.161l54.939,62.336c2.47,2.803,7.01,2.118,8.544-1.288l5.317-11.81
		c1.423-3.16,1.059-6.839-0.956-9.659L398.213,254.627z"/>
	<path style="fill:#C88369;" d="M275.804,412.804l37.498-111.661c1.812-5.396,8.285-7.557,12.976-4.333l16.355,11.244
		c3.397,2.336,4.649,6.76,2.98,10.53l-45.021,101.65c-1.549,3.498-5.229,5.544-9.018,5.016l-8.831-1.232
		C277.429,423.275,274.097,417.889,275.804,412.804z"/>
	<path style="fill:#C88369;" d="M203.156,394.838l56.891-52.811c3.42-3.175,10.329-1.864,14.203,2.695l10.759,12.663
		c3.079,3.624,3.073,8.012-0.014,10.201l-61.711,43.763c-2.647,1.877-6.908,1.654-10.534-0.553l-5.939-3.614
		C201.53,403.967,199.761,397.99,203.156,394.838z"/>
</g>
<path style="fill:#C86E73;" d="M255.999,58.983c-54.176,0-103.234,21.872-138.857,57.255l66.032,46.984l30.701-13.565
	c11.707-43.843,76.806-44.821,85.676,2.142c12.138,64.257,58.551,72.136,77.823,67.827c44.429-9.935,67.459,22.289,75.654,37.465
	c0.002-0.352,0.027-0.699,0.027-1.052C453.055,147.207,364.831,58.983,255.999,58.983z"/>
<path style="fill:#B1575F;" d="M255.999,58.983c-54.171,0-103.156,21.934-138.771,57.317l2.112,1.502
	c32.321-23.219,71.93-36.924,114.764-36.924c90.846,0,167.288,61.495,190.087,145.115c15.014,8.794,24.249,22.605,28.834,31.095
	c0.002-0.351,0.029-0.697,0.029-1.048C453.055,147.207,364.831,58.983,255.999,58.983z"/>
<path style="fill:#EEE2D4;" d="M147.567,208.926c0.478,2.009,1.187,5.062,4.032,8.19c11.411-30.537,35.779-54.663,66.475-65.746
	c-2.384-1.851-5.339-2.925-9.339-3.611c-2.053-0.352-4.034-0.838-6.02-1.074c-22.298-2.65-43.408-11.418-59.286-27.296
	L36.636,12.597c-7.352-7.362-19.755-6.627-26.099,2.204c-4.984,6.936-3.498,16.66,2.541,22.699l106.119,106.119
	c15.878,15.878,24.646,36.988,27.296,59.286C146.729,204.891,147.085,206.9,147.567,208.926z"/>
<path d="M436.991,75.046C388.647,26.701,324.369,0.077,255.999,0.077c-59.431,0-117.011,20.702-162.734,58.391L42.018,7.22
	c-5.116-5.122-12.189-7.726-19.422-7.138C15.376,0.667,8.788,4.409,4.521,10.349c-6.923,9.637-5.492,23.557,3.33,32.378
	l50.577,50.577c-37.697,45.733-58.39,103.269-58.39,162.735c0,68.37,26.625,132.647,74.97,180.992S187.63,512.001,256,512.001
	s132.647-26.624,180.992-74.97c48.345-48.345,74.97-112.622,74.97-180.992S485.337,123.391,436.991,75.046z M18.457,32.121
	c-3.625-3.625-4.395-9.344-1.753-13.02c1.718-2.391,4.241-3.836,7.105-4.068c2.829-0.235,5.598,0.787,7.6,2.792l99.892,99.892
	c17.916,17.916,41.489,29.379,68.59,33.501c-20.669,11.073-37.654,28.044-48.717,48.684c-4.126-27.089-15.587-50.652-33.497-68.561
	L18.457,32.121z M238.848,145.715c-0.906-4.042-4.921-6.585-8.959-5.678c-1.067,0.239-2.122,0.507-3.177,0.774
	c-0.353-0.121-0.705-0.245-1.06-0.36c6.911-13.986,20.779-18.733,31.657-18.333c9.128,0.339,19.969,4.328,27.316,13.742
	c-8.314,10.747-15.351,23.43-20.907,37.798c-4.914,12.71-7.68,15.663-11.357,16.897c-5.935,1.993-17.844,0.258-34.021-2.411
	c-11.305-1.866-23.716-3.908-36.916-4.447c13.8-14.226,31.647-24.519,51.745-29.024
	C237.212,153.768,239.754,149.757,238.848,145.715z M113.295,178.251c4.645-2.348,9.474-4.399,14.376-6.15
	c2.573,5.763,4.676,11.842,6.291,18.197c-4.091,1.476-8.104,3.195-11.974,5.152c-29.577,14.953-45.01,40.383-55.448,68.298
	c-0.686-16.748,0.844-33.569,4.595-49.995c0.042-0.053,0.089-0.099,0.13-0.153C82.665,198.347,96.414,186.785,113.295,178.251z
	 M81.927,180.807c6.112-14.114,14.028-27.645,23.746-40.257l1.396,1.396c5.078,5.078,9.547,10.707,13.417,16.793
	c-4.755,1.787-9.434,3.837-13.959,6.125C97.57,169.392,89.407,174.688,81.927,180.807z M426.385,426.424
	c-45.512,45.512-106.022,70.577-170.386,70.577s-124.874-25.064-170.386-70.576S15.037,320.402,15.037,256.039
	c0-55.497,19.152-109.202,54.055-152.07l25.886,25.886c-59.622,75.872-58.051,183.463,4.383,257.678
	c0.417,0.496,3.369,3.833,4.938,4.522c0.981,0.431,2.004,0.635,3.011,0.635c2.885,0,5.637-1.675,6.871-4.487
	c9.368-21.334,15.223-42.71,20.388-61.57c6.854-25.022,14.817-48.996,26.562-54.935c10.333-5.224,24.347-4.302,43.609-1.124
	c28.235,4.658,75.491,12.457,110.375-23.419c2.888-2.97,2.821-7.718-0.148-10.605c-2.969-2.888-7.718-2.821-10.605,0.148
	c-29.421,30.257-68.584,23.794-97.179,19.076c-22.247-3.671-38.842-4.527-52.819,2.538c-16.075,8.129-25.027,30.652-34.26,64.358
	c-4.09,14.931-8.623,31.481-14.972,48.073c-16.704-21.898-28.008-46.557-33.913-72.194c10.419-37.249,22.711-72.105,57.537-89.712
	c2.613-1.321,5.306-2.506,8.044-3.576c0.228,1.78,0.426,3.575,0.583,5.389c0.186,2.142,0.476,4.313,0.861,6.453
	c0.464,2.575,1.093,5.142,1.87,7.66c-0.898,0.408-1.79,0.829-2.664,1.271c-27.43,13.867-37.915,43.598-46.304,72.861
	c-1.142,3.982,1.161,8.135,5.143,9.276c0.691,0.198,1.386,0.292,2.071,0.292c3.261,0,6.262-2.144,7.206-5.435
	c9.173-31.997,18.321-52.678,37.492-62.992c0.701,0.416,1.478,0.731,2.322,0.904c0.507,0.104,1.013,0.154,1.511,0.154
	c3.488,0,6.613-2.447,7.34-5.998c2.708-13.234,7.934-25.539,15.142-36.415c16.437-0.692,32.391,1.932,46.526,4.265
	c13.124,2.165,22.338,3.499,29.574,3.499c4.499,0,8.233-0.516,11.664-1.668c11.301-3.795,16.003-13.888,20.573-25.708
	c3.944-10.203,8.68-19.426,14.116-27.566c0.126,0.556,0.248,1.115,0.357,1.689c1.409,7.458,3.621,15.909,7.081,24.403
	c-1.266,2.721-2.466,5.541-3.58,8.423c-18.034,46.648-46.667,41.925-82.92,35.942c-8.005-1.321-16.282-2.687-24.598-3.468
	c-4.131-0.386-7.782,2.641-8.169,6.765s2.642,7.782,6.765,8.169c7.795,0.732,15.81,2.055,23.561,3.334
	c11.628,1.918,23.502,3.877,35.008,3.877c6.817,0,13.508-0.688,19.937-2.481c18.978-5.293,33.08-19.485,43.033-43.323
	c5.428,8.164,12.437,15.71,21.49,21.668c7.613,5.01,15.462,8.128,22.897,9.858c-17.119,34.181-42.278,55.588-74.883,63.673
	c-29.365,7.282-58.682,2.443-76.2-0.448l-12.684-2.089c-12.152-2.002-23.781,4.959-27.653,16.553
	c-2.945,8.817-5.808,19.275-8.108,27.676c-3.409,12.444-7.272,26.549-12.335,41.128c-1.359,3.913,0.711,8.187,4.625,9.545
	c0.814,0.283,1.645,0.417,2.461,0.417c3.104,0,6.008-1.943,7.084-5.042c5.228-15.053,9.162-29.416,12.633-42.087
	c2.252-8.225,5.054-18.461,7.868-26.886c1.525-4.566,6.144-7.303,10.988-6.504l12.682,2.089c18.657,3.079,49.884,8.233,82.25,0.206
	c9.572-2.373,18.563-5.745,26.973-10.085c-0.917,1.284-1.672,2.7-2.192,4.249l-6.901,20.549
	c-26.319,8.745-56.622,10.822-90.131,6.136c-10.298-1.437-20.142,5.067-22.897,15.136l-0.729,2.666
	c-5.052,18.501-12.573,46.024-26.311,75.78c-8.767-5.216-17.15-11.167-25.062-17.823c-3.169-2.666-7.9-2.258-10.567,0.911
	s-2.259,7.901,0.911,10.567c36.908,31.049,83.319,47.894,131.501,47.894c2.774,0,5.554-0.056,8.339-0.168
	c51.454-2.073,99.859-23.282,136.297-59.72s57.647-84.843,59.721-136.297c2.061-51.144-14.889-100.807-47.726-139.84
	c-2.667-3.17-7.397-3.578-10.567-0.911s-3.578,7.398-0.911,10.567c23.453,27.878,38.147,61.615,42.78,97.323
	c-0.937-1.05-1.923-2.098-2.97-3.132c-11.548-11.41-32.239-23.464-65.23-16.085c-8.621,1.927-23.667,0.901-37.704-8.336
	c-15.909-10.47-26.377-28.491-31.113-53.564c-5.447-28.84-28.563-42.517-49.056-43.278c-21.235-0.8-39.47,11.163-47.262,30.292
	c-27.506-2.394-51.262-12.876-68.697-30.312l-1.396-1.396c70.216-54.111,169.023-52.295,237.326,5.166
	c1.406,1.183,3.12,1.761,4.824,1.761c2.137,0,4.26-0.909,5.743-2.672c2.667-3.169,2.259-7.901-0.911-10.567
	c-74.215-62.435-181.805-64.006-257.678-4.383l-25.89-25.89c42.855-34.897,96.604-54.051,152.069-54.051
	c64.363,0,124.874,25.064,170.386,70.576s70.576,106.022,70.576,170.386S471.897,380.913,426.385,426.424z M377.135,267.677
	c-0.225-0.254-0.309-0.553-0.251-0.887c0.058-0.334,0.238-0.588,0.535-0.752l13.305-7.364c0.473-0.264,1.07-0.129,1.386,0.313
	l42.762,59.859c-1.181,3.371-2.456,6.706-3.826,10.002L377.135,267.677z M424.118,343.673
	c-8.779,16.828-20.127,32.383-33.803,46.117l4.761-79.07L424.118,343.673z M198.054,389.341c-3.007,2.791-4.489,6.803-4.064,11.008
	c0.526,5.21,3.861,10.159,8.921,13.239l5.939,3.614c3.207,1.951,6.704,2.93,10.044,2.93c3.18,0,6.218-0.887,8.727-2.667
	l50.804-36.028l-9.731,28.978c-1.527,4.546-0.955,9.492,1.568,13.569c2.523,4.078,6.694,6.797,11.443,7.459l8.833,1.232
	c0.735,0.103,1.468,0.152,2.196,0.152c6.273,0,12.126-3.714,14.714-9.56l41.69-94.128l2.826,67.334
	c0.204,4.854,2.555,9.304,6.45,12.208c1.841,1.372,3.916,2.306,6.089,2.794c-29.469,20.607-64.286,32.467-100.762,33.937
	c-31.92,1.283-63.214-5.43-91.298-19.239c14.513-31.21,22.327-59.812,27.562-78.982l0.726-2.656c0.771-2.817,3.5-4.637,6.352-4.242
	c14.227,1.989,27.94,2.815,41.099,2.513L198.054,389.341z M264.873,347.781c0.685-0.053,2.43,0.346,3.662,1.797l10.759,12.663
	c0.036,0.042,0.069,0.083,0.1,0.123l-60.275,42.745c-0.379,0.057-1.365-0.047-2.47-0.719l-5.938-3.614
	c-0.755-0.459-1.217-0.955-1.484-1.337L264.873,347.781z M288.868,350.343l-8.902-10.478c-0.055-0.065-0.119-0.121-0.175-0.185
	c4.644-0.839,9.202-1.839,13.668-3.008L288.868,350.343z M320.412,303.53c0.112-0.334,0.339-0.561,0.674-0.673
	c0.12-0.04,0.237-0.06,0.352-0.06c0.207,0,0.404,0.064,0.591,0.193l16.354,11.244c0.423,0.291,0.58,0.843,0.372,1.313
	l-45.022,101.65c-0.191,0.432-0.651,0.69-1.123,0.625l-8.832-1.232c-0.329-0.046-0.585-0.212-0.76-0.495
	c-0.175-0.283-0.21-0.586-0.104-0.902L320.412,303.53z M363.133,304.864c-0.014-0.339,0.108-0.625,0.364-0.848
	c0.256-0.224,0.557-0.306,0.889-0.248l14.974,2.646c0.535,0.095,0.914,0.574,0.881,1.116l-5.229,86.838
	c-0.028,0.466-0.352,0.857-0.805,0.971l-5.927,1.498c-0.327,0.083-0.629,0.023-0.899-0.179c-0.271-0.201-0.415-0.474-0.429-0.811
	L363.133,304.864z M404.315,250.268c-4.746-6.644-13.712-8.671-20.855-4.718l-12.915,7.148c-4.039,2.236-7.133,5.976-8.219,10.463
	c-1.25,5.165,0.081,10.492,3.556,14.435l11.695,13.27l-10.581-1.87c-4.819-0.85-9.695,0.508-13.378,3.731
	c-3.036,2.657-4.901,6.291-5.355,10.223c-0.439-0.378-0.894-0.743-1.381-1.078l-16.354-11.244c-3.263-2.244-7.12-3.164-10.945-2.71
	c20.314-13.512,36.683-33.508,48.905-59.81c3.885-0.053,7.442-0.476,10.524-1.165c38.917-8.703,57.917,15.771,64.084,31.018
	c1.594,3.941,2.203,8.208,1.884,12.447c-0.769,10.232-2.355,20.314-4.725,30.165L404.315,250.268z"/>
<path d="M394.852,173.532l5.034,10.791c1.272,2.729,3.978,4.332,6.802,4.332c1.062,0,2.14-0.227,3.166-0.705
	c3.754-1.751,5.377-6.213,3.626-9.967l-5.034-10.791c-1.75-3.754-6.212-5.377-9.967-3.626
	C394.725,165.316,393.101,169.778,394.852,173.532z"/>
<path d="M344.94,156.491l-8.567,8.567c-2.929,2.929-2.929,7.678,0,10.606c1.464,1.464,3.384,2.197,5.303,2.197
	s3.839-0.732,5.303-2.197l8.567-8.567c2.929-2.929,2.929-7.678,0-10.606C352.618,153.563,347.869,153.563,344.94,156.491z"/>
<path d="M340.608,144.659v-8.568c0-4.142-3.358-7.5-7.5-7.5s-7.5,3.358-7.5,7.5v8.568c0,4.142,3.358,7.5,7.5,7.5
	S340.608,148.801,340.608,144.659z"/>
<path d="M372.682,130.788c-2.929-2.929-7.678-2.929-10.606,0c-2.929,2.929-2.929,7.678,0,10.606l8.568,8.568
	c1.464,1.464,3.384,2.197,5.303,2.197s3.839-0.732,5.303-2.197c2.929-2.929,2.929-7.678,0-10.606L372.682,130.788z"/>
<path d="M304.141,87.95c-2.928-2.929-7.677-2.929-10.606,0s-2.929,7.677,0,10.606l8.567,8.568c1.464,1.465,3.384,2.197,5.303,2.197
	s3.839-0.732,5.303-2.197c2.929-2.929,2.929-7.677,0-10.606L304.141,87.95z"/>
<path d="M196.026,94.321c-4.142,0-7.5,3.358-7.5,7.5v8.568c0,4.142,3.358,7.5,7.5,7.5s7.5-3.358,7.5-7.5v-8.568
	C203.526,97.679,200.168,94.321,196.026,94.321z"/>
<path d="M221.814,85.753h-0.085c-4.142,0-7.457,3.358-7.457,7.5s3.4,7.5,7.542,7.5s7.5-3.358,7.5-7.5S225.956,85.753,221.814,85.753
	z"/>
<path d="M264.653,77.186h-0.085c-4.142,0-7.458,3.358-7.458,7.5s3.401,7.5,7.543,7.5s7.5-3.358,7.5-7.5
	S268.795,77.186,264.653,77.186z"/>
<path d="M333.108,117.889c4.142,0,7.5-3.358,7.5-7.5s-3.358-7.5-7.5-7.5h-0.085c-4.142,0-7.457,3.358-7.457,7.5
	S328.966,117.889,333.108,117.889z"/>
<path d="M375.947,179.998h-0.086c-4.142,0-7.457,3.358-7.457,7.5s3.401,7.5,7.543,7.5s7.5-3.358,7.5-7.5
	S380.089,179.998,375.947,179.998z"/>
<g>
</g>
<g>
</g>
<g>
</g>
<g>
</g>
<g>
</g>
<g>
</g>
<g>
</g>
<g>
</g>
<g>
</g>
<g>
</g>
<g>
</g>
<g>
</g>
<g>
</g>
<g>
</g>
<g>
</g>
</svg>
