<?xml version="1.0"?>
<svg xmlns="http://www.w3.org/2000/svg" id="Fill_out_line" data-name="Fill out line" viewBox="0 0 512 512" width="512" height="512"><path d="M176,128l-24,24-49.42-49.41992A15.73489,15.73489,0,0,1,96,104a16,16,0,0,1,0-32,16,16,0,0,1,32,0,15.73387,15.73387,0,0,1-1.42,6.58008Z" style="fill:#f0de9c"/><path d="M256.71,211.6499A56.02809,56.02809,0,0,1,168.4,223.6001C146.53,201.73,123.91,143.64014,145.77,121.77c15.56-15.55,49.45-8.59009,75.59,4.6001,10.6,5.34985,19.93,11.71972,26.24,18.02978A56.02183,56.02183,0,0,1,256.71,211.6499Z" style="fill:#f0c033"/><path d="M392,40a16,16,0,1,0-30.5752,6.5752L312,96l24,24,49.4248-49.4248A15.99556,15.99556,0,1,0,392,40Z" style="fill:#f0de9c"/><path d="M350.68994,123.71c-2.63989,24.76-17.02,53.82007-31.09,67.89014a56.00291,56.00291,0,1,1-79.2-79.2002C262.27,90.53,320.36,67.90991,342.23,89.77,350.03,97.57007,352.16992,109.98,350.68994,123.71Z" style="fill:#f0c033"/><path d="M464,176a31.99139,31.99139,0,0,1-32,32H335.55005c-33.76,0-44.51-45.52-14.31006-60.62012L440,88a71.77476,71.77476,0,0,1-21.09009,50.90991A70.09049,70.09049,0,0,1,413.25,144H432a31.58259,31.58259,0,0,1,3.65991.21A32.00137,32.00137,0,0,1,464,176Z" style="fill:#f0c033"/><rect x="104" y="184" width="384" height="32" style="fill:#c6d6e2"/><polygon points="416 488 176 488 136 216 456 216 416 488" style="fill:#e64042"/><path d="M208,336a15.99221,15.99221,0,0,1-22.58,14.58008l-20.24,20.24L136,400l-24-24,49.42-49.41992A15.99831,15.99831,0,1,1,192,320,15.99552,15.99552,0,0,1,208,336Z" style="fill:#f0de9c"/><path d="M165.18,370.82007,136,400l-4.52-4.52A64.23507,64.23507,0,0,1,165.18,370.82007Z" style="fill:#f0c033"/><path d="M127.55,462.12012a78.50806,78.50806,0,0,1-7.95,9.48,56.00291,56.00291,0,0,1-79.2-79.2002c21.87-21.86987,79.96-44.49,101.83-22.62988a27.65038,27.65038,0,0,1,5.98,9.2C157.27,401.33008,143.79,439.62012,127.55,462.12012Z" style="fill:#f0c033"/><path d="M328,432a16,16,0,1,0-16-16H248v32h64a16,16,0,1,0,16-16Z" style="fill:#f0de9c"/><path d="M272,432c0,30.928-57.072,56-88,56a56,56,0,0,1,0-112C214.928,376,272,401.07205,272,432Z" style="fill:#f0c033"/><path d="M488,176H472a40.04552,40.04552,0,0,0-40-40h-.04346A79.583,79.583,0,0,0,448,88a8,8,0,0,0-11.57812-7.15527l-77.37354,38.68676a67.8204,67.8204,0,0,0-.30273-10.96386l28.95068-28.95044a24.00463,24.00463,0,0,0,11.27246-46.58594,24.00628,24.00628,0,0,0-46.58594,11.272L323.40088,73.28516c-9.87354-1.13636-21.44776.07641-34.26514,3.70361C268.26465,82.895,246.915,94.5752,234.74512,106.74512a64.06055,64.06055,0,0,0-9.73194,12.51538c-13.19531-6.66382-27.53491-11.45239-40.38232-13.387a76.65638,76.65638,0,0,0-20.03857-.59522l-28.9751-28.9751a24.00458,24.00458,0,0,0-46.58594-11.272,24.00635,24.00635,0,0,0,11.27246,46.58594l28.97241,28.9729a66.66182,66.66182,0,0,0-.39624,8.53247A103.07883,103.07883,0,0,0,133.32007,176H104a8.00008,8.00008,0,0,0-8,8v32a8.00008,8.00008,0,0,0,8,8h25.09033l9.58252,65.16406,15.83008-2.32812L145.2627,224H446.7373L409.09082,480H264v16H416a8,8,0,0,0,7.915-6.83594L462.90967,224H488a8.00008,8.00008,0,0,0,8-8V184A8.00008,8.00008,0,0,0,488,176ZM368,152h-8v16h8a79.581,79.581,0,0,0,47.94434-16H432a24.02718,24.02718,0,0,1,24,24H311.53125c-.09473-7.70239,3.25488-16.44873,13.29-21.46631l105.707-52.85351A64.10958,64.10958,0,0,1,368,152Zm-.92285-99.76318a8.001,8.001,0,0,0,1.61719-8.98633A7.74776,7.74776,0,0,1,368,40a8,8,0,0,1,16,0,8.00008,8.00008,0,0,0,8,8,8,8,0,0,1,0,16,7.75162,7.75162,0,0,1-3.251-.69434,8.002,8.002,0,0,0-8.98632,1.61768L353.36475,91.321a34.44084,34.44084,0,0,0-5.48194-7.20336,34.042,34.042,0,0,0-7.21142-5.475ZM246.05957,118.05859c10.21973-10.21972,29.28125-20.53759,47.43262-25.6748,19.82812-5.61035,35.53027-4.50049,43.07617,3.04736,6.13867,6.13843,8.03076,17.64661,5.44141,32.61963L317.665,140.22314A38.83421,38.83421,0,0,0,295.54443,176H238.42358A47.98,47.98,0,0,1,246.05957,118.05859ZM108.2373,96.92334A8.00222,8.00222,0,0,0,99.251,95.30566,7.75162,7.75162,0,0,1,96,96a8,8,0,0,1,0-16,8.00008,8.00008,0,0,0,8-8,8,8,0,0,1,16,0,7.75162,7.75162,0,0,1-.69434,3.251,8.0002,8.0002,0,0,0,1.61719,8.98584l26.41358,26.41369a33.46417,33.46417,0,0,0-12.70606,12.6659Zm43.19434,30.50781c11.98828-11.98926,42.33057-6.25635,67.16992,6.51551A63.9921,63.9921,0,0,0,220.64819,176H150.083C142.697,154.07227,143.12305,135.73926,151.43164,127.43115ZM480,208H112V192H480Z"/><path d="M271.09912,456h34.272A23.99807,23.99807,0,1,0,345.874,432a23.99557,23.99557,0,1,0-40.50293-24h-34.272c-6.186-8.14722-15.48828-15.8136-27.59814-22.58154C224.56641,374.8374,201.21094,368,184,368c-1.64771,0-3.27539.08276-4.89209.20581l8.58838-8.58862a24.00463,24.00463,0,0,0,11.27246-46.58594,24.00628,24.00628,0,0,0-46.58594,11.272l-28.981,28.98145c-9.874-1.13672-21.44849.07641-34.26612,3.7041C68.26465,362.895,46.915,374.5752,34.74512,386.74512a64.00008,64.00008,0,0,0,90.50976,90.50976,81.68731,81.68731,0,0,0,6.84278-7.87719A63.94429,63.94429,0,0,0,184,496c17.21094,0,40.56641-6.8374,59.501-17.41846C255.61084,471.8136,264.91309,464.14722,271.09912,456ZM312,424a8.00008,8.00008,0,0,0,8-8,8,8,0,1,1,8,8,8,8,0,0,0,0,16,8,8,0,1,1-8,8,8.00008,8.00008,0,0,0-8-8H279.02783a33.40214,33.40214,0,0,0,0-16ZM167.07715,332.23682a8.001,8.001,0,0,0,1.61719-8.98633A7.74613,7.74613,0,0,1,168,320a8,8,0,0,1,16,0,8.00008,8.00008,0,0,0,8,8,8,8,0,0,1,0,16,7.7439,7.7439,0,0,1-3.25-.69434,8.0015,8.0015,0,0,0-8.9873,1.61768l-26.40137,26.40124a33.45748,33.45748,0,0,0-12.6897-12.68188ZM113.94043,465.94141a47.99971,47.99971,0,1,1-67.88086-67.88282c10.21973-10.21972,29.28125-20.53759,47.43262-25.6748,19.82812-5.60986,35.52929-4.5,43.07617,3.04736a20.725,20.725,0,0,1,4.98584,8.726,63.8803,63.8803,0,0,0-17.82056,69.36463A78.28854,78.28854,0,0,1,113.94043,465.94141Zm121.75488-1.32715C219.22754,473.81689,198.45312,480,184,480a48,48,0,0,1,0-96c14.45312,0,35.22754,6.18311,51.69531,15.38574C253.68359,409.438,264,421.32568,264,432S253.68359,454.562,235.69531,464.61426Z"/></svg>
