<svg id="Layer_3" enable-background="new 0 0 64 64" height="512" viewBox="0 0 64 64" width="512" xmlns="http://www.w3.org/2000/svg"><g><path d="m29 10h6c5.523 0 10 4.477 10 10s-4.477 10-10 10h-6" fill="#8892a0"/><circle cx="29" cy="20" fill="#d5cec2" r="10"/><circle cx="29" cy="20" fill="#c16b3f" r="6"/><path d="m26.444 25.429c1.907-2.369 4.303-4.302 7.028-5.665l1.451-.726c.051.313.077.635.077.962 0 3.314-2.686 6-6 6-.914 0-1.781-.205-2.556-.571z" fill="#e39854"/><path d="m23.87 23.114.13-.114c2.631-1.973 4.766-4.531 6.236-7.472l.618-1.236c-.584-.19-1.207-.292-1.854-.292-3.314 0-6 2.686-6 6 0 1.14.318 2.206.87 3.114z" fill="#e39854"/><path d="m16 28h6c5.523 0 10 4.477 10 10s-4.477 10-10 10h-6" fill="#8892a0"/><circle cx="16" cy="38" fill="#d5cec2" r="10"/><circle cx="16" cy="38" fill="#c16b3f" r="6"/><path d="m13.444 43.429c1.907-2.369 4.303-4.302 7.028-5.665l1.451-.726c.051.313.077.635.077.962 0 3.314-2.686 6-6 6-.914 0-1.781-.205-2.556-.571z" fill="#e39854"/><path d="m10.87 41.114.13-.114c2.631-1.973 4.766-4.531 6.236-7.472l.618-1.236c-.584-.19-1.207-.292-1.854-.292-3.314 0-6 2.686-6 6 0 1.14.318 2.206.87 3.114z" fill="#e39854"/><path d="m42 28h6c5.523 0 10 4.477 10 10s-4.477 10-10 10h-6" fill="#8892a0"/><circle cx="42" cy="38" fill="#d5cec2" r="10"/><circle cx="42" cy="38" fill="#c16b3f" r="6"/><path d="m39.444 43.429c1.907-2.369 4.303-4.302 7.028-5.665l1.451-.726c.051.313.077.635.077.962 0 3.314-2.686 6-6 6-.914 0-1.781-.205-2.556-.571z" fill="#e39854"/><path d="m36.87 41.114.13-.114c2.631-1.973 4.766-4.531 6.236-7.472l.618-1.236c-.584-.19-1.207-.292-1.854-.292-3.314 0-6 2.686-6 6 0 1.14.318 2.206.87 3.114z" fill="#e39854"/><path d="m56 54h-48c-3.314 0-6-2.686-6-6h60c0 3.314-2.686 6-6 6z" fill="#8f6128"/><path d="m8 51h48c2.22 0 4.153-1.208 5.191-3h-58.382c1.038 1.792 2.971 3 5.191 3z" fill="#bc7f35"/></g></svg>