<svg id="Capa_1" enable-background="new 0 0 496.108 496.108" height="512" viewBox="0 0 496.108 496.108" width="512" xmlns="http://www.w3.org/2000/svg"><g><path d="m374.952 90.865 21.264-74.666c1.425-5.004-1.56-10.197-6.601-11.484l-17.333-4.425c-5.041-1.287-10.15 1.84-11.298 6.914l-32.322 142.907-15.962 72.11h17.711z" fill="#fedba6"/><path d="m355.109 173.036 103.55-148.271c2.979-4.265 1.85-10.148-2.495-13.009l-14.943-9.836c-4.346-2.86-10.195-1.571-12.935 2.852l-91.551 147.785-43.667 77.801 19.632 7.344z" fill="#fee8c7"/><path d="m421.709 241.445-1.855-8.856c-2.547-12.162-11.657-21.892-23.626-25.232l-.391-.109c-3.169-.884-5.722-3.236-6.862-6.322-4.829-13.066-17.284-21.742-31.214-21.742l-4.079-9.457c-5.261-12.197-17.272-20.096-30.555-20.096h-.805c-5.866 0-11.112-3.651-13.149-9.152-4.911-13.26-17.667-21.969-31.805-21.714-3.475.063-6.834-1.249-9.347-3.65l-8.821-8.427c-12.861-12.286-33.111-12.286-45.972 0l-8.821 8.427c-2.513 2.401-5.872 3.712-9.347 3.65-14.138-.255-26.894 8.454-31.805 21.714-2.037 5.501-7.283 9.152-13.149 9.152h-.805c-13.283 0-25.294 7.9-30.555 20.096l-4.079 9.457c-13.93 0-26.385 8.676-31.214 21.742-1.141 3.086-3.693 5.438-6.862 6.322l-.391.109c-11.968 3.34-21.079 13.07-23.626 25.232l-1.855 8.856v49.61h370.991v-49.61z" fill="#faf7f7"/><path d="m97.162 262.268 1.855-8.856c2.547-12.162 11.657-21.892 23.626-25.232l.391-.109c3.169-.884 5.722-3.236 6.862-6.322 4.829-13.066 17.284-21.742 31.214-21.742l4.079-9.457c5.261-12.197 17.272-20.096 30.555-20.096h.805c5.866 0 11.112-3.651 13.149-9.152 4.911-13.26 17.667-21.969 31.805-21.714 3.475.063 6.834-1.249 9.347-3.65l8.821-8.427c5.005-4.781 11.156-7.685 17.527-8.745-3.405.011-6.712-1.296-9.178-3.652l-8.821-8.427c-12.862-12.286-33.111-12.286-45.973 0l-8.821 8.427c-2.513 2.401-5.872 3.712-9.347 3.65-14.138-.255-26.894 8.454-31.805 21.714-2.037 5.501-7.283 9.152-13.149 9.152h-.805c-13.283 0-25.294 7.9-30.555 20.096l-4.079 9.457c-13.93 0-26.385 8.676-31.214 21.742-1.141 3.086-3.693 5.438-6.862 6.322l-.391.109c-11.968 3.34-21.079 13.07-23.626 25.232l-1.855 8.856v49.61h46.444v-28.786z" fill="#f9f3f1"/><path d="m336.914 478.421c0 9.768-7.918 17.686-17.686 17.686h-166.029c-9.768 0-17.686-7.918-17.686-17.686v-89.255h201.402v89.255z" fill="#c8effe"/><g><g id="XMLID_160_"><g><path d="m436.643 251.38v43.61c0 89.92-72.89 162.81-162.81 162.81h-75.24c-89.92 0-162.81-72.89-162.81-162.81v-43.61c0-5.49 4.45-9.94 9.93-9.94h381c5.48 0 9.93 4.45 9.93 9.94z" fill="#c8effe"/></g></g><path d="m311.96 276.054h-225.004v15h225.004c4.142 0 7.5-3.358 7.5-7.5s-3.358-7.5-7.5-7.5z" fill="#99e6fc"/><path d="m335.068 443.712h-75.24c-89.92 0-162.81-72.89-162.81-162.81v-39.462h-51.305c-5.48 0-9.93 4.45-9.93 9.94v43.61c0 89.92 72.89 162.81 162.81 162.81h75.24c23.71 0 46.233-5.072 66.551-14.184-1.766.057-3.536.096-5.316.096z" fill="#99e6fc"/><g><path d="m253.785 216.927c-1.427 0-2.87-.407-4.147-1.256l-2.203-1.465c-6.437-4.282-14.782-3.87-20.766 1.025-3.206 2.623-7.931 2.15-10.554-1.055-2.623-3.206-2.15-7.931 1.055-10.554 11.115-9.094 26.617-9.859 38.573-1.905l2.203 1.465c3.449 2.294 4.384 6.95 2.09 10.399-1.445 2.17-3.825 3.346-6.251 3.346z" fill="#f9f3f1"/></g><g><path d="m289.941 178.96c-1.427 0-2.87-.407-4.147-1.256l-1.412-.939c-3.133-2.086-7.195-1.884-10.107.499-3.206 2.623-7.93 2.15-10.554-1.056-2.623-3.206-2.15-7.931 1.056-10.554 8.043-6.582 19.262-7.136 27.914-1.378l1.411.938c3.449 2.294 4.385 6.95 2.091 10.398-1.445 2.173-3.826 3.348-6.252 3.348z" fill="#f9f3f1"/></g><g><path d="m340.615 215.087c-1.427 0-2.869-.407-4.146-1.256l-1.411-.938c-3.134-2.086-7.195-1.885-10.107.498-3.205 2.623-7.931 2.15-10.554-1.055s-2.15-7.931 1.055-10.554c8.043-6.582 19.261-7.135 27.915-1.378l1.41.938c3.449 2.294 4.386 6.949 2.092 10.398-1.446 2.172-3.828 3.347-6.254 3.347z" fill="#f9f3f1"/></g><g><path d="m183.486 178.96c-2.426 0-4.807-1.175-6.251-3.347-2.294-3.449-1.358-8.104 2.091-10.398l1.412-.939c8.652-5.757 19.87-5.202 27.913 1.379 3.206 2.623 3.679 7.348 1.056 10.554-2.623 3.207-7.348 3.678-10.554 1.056-2.913-2.383-6.975-2.583-10.107-.5l-1.412.939c-1.279.85-2.722 1.256-4.148 1.256z" fill="#f3eae6"/></g><g><path d="m132.811 215.087c-2.427 0-4.807-1.176-6.252-3.348-2.294-3.449-1.357-8.104 2.092-10.398l1.411-.938c8.652-5.755 19.87-5.203 27.913 1.379 3.206 2.623 3.678 7.349 1.055 10.554-2.624 3.206-7.348 3.678-10.554 1.055-2.911-2.383-6.973-2.583-10.106-.499l-1.413.939c-1.276.85-2.719 1.256-4.146 1.256z" fill="#f3eae6"/></g><path d="m436.643 276.054h-91.949c-4.142 0-7.5 3.358-7.5 7.5s3.358 7.5 7.5 7.5h91.949z" fill="#99e6fc"/></g><path d="m97.018 280.902v-4.848h-61.235v15h61.559c-.206-3.359-.324-6.741-.324-10.152z" fill="#62dbfb"/></g></svg>