<?xml version="1.0" encoding="iso-8859-1"?>
<!-- Generator: Adobe Illustrator 19.0.0, SVG Export Plug-In . SVG Version: 6.00 Build 0)  -->
<svg version="1.1" id="Capa_1" xmlns="http://www.w3.org/2000/svg" xmlns:xlink="http://www.w3.org/1999/xlink" x="0px" y="0px"
	 viewBox="0 0 512 512" style="enable-background:new 0 0 512 512;" xml:space="preserve">
<path style="fill:#994C0F;" d="M367.583,493.337H144.416l31.195-119.983c1.8-8.1,10.198-13.198,17.996-10.798H318.39
	c7.799-2.401,16.197,2.699,17.996,10.798L367.583,493.337z"/>
<path style="fill:#713708;" d="M367.583,493.337H256V362.556h62.392c7.799-2.401,16.197,2.699,17.996,10.798L367.583,493.337z"/>
<path style="fill:#CAE8F9;" d="M309.093,301.664H202.907c-8.098-1.8-13.198-9.9-11.398-17.996l19.798-89.987
	c1.5-6.9,7.799-11.698,14.698-11.698h59.991c6.898,0,13.198,4.798,14.698,11.698l19.798,89.987
	C322.291,291.765,317.19,299.864,309.093,301.664z"/>
<path style="fill:#B7E0F6;" d="M309.093,301.664h-53.093V181.981h29.996c6.898,0,13.198,4.798,14.698,11.698l19.798,89.987
	C322.291,291.765,317.19,299.864,309.093,301.664z"/>
<path style="fill:#FEA832;" d="M256,421.948c-24.897,0-44.994,20.096-44.994,44.994v29.996c0,8.4,6.598,14.998,14.998,14.998h59.991
	c8.4,0,14.998-6.598,14.998-14.998v-29.996C300.994,442.044,280.897,421.948,256,421.948z"/>
<path style="fill:#FD4E26;" d="M509.263,278.268c-2.999-3.899-7.499-6.3-12.297-6.3H15.034c-4.798,0-9.299,2.401-12.297,6.3
	c-2.701,3.899-3.601,8.999-1.8,13.497c19.796,59.991,76.888,100.187,139.878,100.187h230.369
	c62.99,0,120.082-40.195,139.878-100.187C512.863,287.267,511.964,282.168,509.263,278.268z"/>
<g>
	<path style="fill:#CAE8F9;" d="M173.438,150.535c-14.236-9.491-22.731-25.367-22.731-42.474s8.495-32.983,22.731-42.474
		c5.961-3.969,9.374-13.354,9.374-20.517s-3.413-13.548-9.374-17.518c-6.884-4.584-8.759-13.899-4.159-20.798
		c4.584-6.898,13.855-8.773,20.798-4.159c14.236,9.491,22.731,25.367,22.731,42.474s-8.495,35.983-22.731,45.474
		c-5.961,3.969-9.374,10.355-9.374,17.518c0,7.163,3.413,13.548,9.374,17.518c6.898,4.599,8.759,13.899,4.159,20.798
		C189.713,153.172,180.447,155.182,173.438,150.535z"/>
	<path style="fill:#CAE8F9;" d="M256,105.493c-0.3,0.899-0.3,1.8-0.3,2.699c0,0.901,0,1.8,0.3,2.701
		c0.601,5.999,3.899,11.398,8.999,14.698c6.9,4.5,8.7,13.799,4.199,20.697c-2.999,4.5-8.1,6.898-13.198,6.898
		c-2.401,0-5.399-0.899-7.499-2.699c-14.397-9.299-22.797-25.197-22.797-42.295s8.4-32.994,22.797-42.593
		c3.599-2.401,5.999-7.399,7.499-10.998c1.199-2.701,1.8-6.399,1.8-9.4c0-2.999-0.601-5.998-1.8-8.698
		c-1.5-3.599-3.899-6.598-7.499-8.999c-6.898-4.5-8.698-13.799-4.199-20.697c2.701-3.899,7.199-6.3,11.698-6.6
		c3.3-0.298,6.3,0.601,8.999,2.401c14.399,9.599,22.797,25.495,22.797,42.593s-8.398,35.996-22.797,45.295
		C259.599,93.794,256.6,99.494,256,105.493z"/>
	<path style="fill:#CAE8F9;" d="M323.417,150.535c-14.236-9.491-22.731-25.367-22.731-42.474s8.495-32.983,22.731-42.474
		c5.961-3.969,9.374-13.354,9.374-20.517s-3.413-13.548-9.374-17.518c-6.884-4.584-8.759-13.899-4.159-20.798
		c4.584-6.898,13.855-8.773,20.798-4.159c14.236,9.491,22.731,25.367,22.731,42.474s-8.495,35.983-22.731,45.474
		c-5.961,3.969-9.374,10.355-9.374,17.518c0,7.163,3.413,13.548,9.374,17.518c6.898,4.599,8.759,13.899,4.159,20.798
		C339.691,153.172,330.425,155.182,323.417,150.535z"/>
</g>
<path style="fill:#FE9923;" d="M300.994,466.941v29.996c0,8.4-6.598,14.998-14.998,14.998H256v-89.987
	C280.897,421.948,300.994,442.044,300.994,466.941z"/>
<path style="fill:#FD3018;" d="M511.063,291.765c-19.796,59.991-76.888,100.187-139.878,100.187H256V271.969h240.966
	c4.798,0,9.299,2.401,12.297,6.3C511.964,282.168,512.863,287.267,511.063,291.765z"/>
<path style="fill:#BF6015;" d="M420.977,496.937c0,8.4-6.598,14.998-14.998,14.998H106.021c-8.4,0-14.998-6.598-14.998-14.998
	c0-8.4,6.598-14.998,14.998-14.998h299.957C414.378,481.939,420.977,488.537,420.977,496.937z"/>
<path style="fill:#994C10;" d="M420.977,496.937c0,8.4-6.598,14.998-14.998,14.998H256v-29.996h149.979
	C414.378,481.939,420.977,488.537,420.977,496.937z"/>
<g>
</g>
<g>
</g>
<g>
</g>
<g>
</g>
<g>
</g>
<g>
</g>
<g>
</g>
<g>
</g>
<g>
</g>
<g>
</g>
<g>
</g>
<g>
</g>
<g>
</g>
<g>
</g>
<g>
</g>
</svg>
